<?xml version="1.0" standalone="no"?>
<!DOCTYPE svg PUBLIC "-//W3C//DTD SVG 20010904//EN"
 "http://www.w3.org/TR/2001/REC-SVG-20010904/DTD/svg10.dtd">
<svg version="1.0" xmlns="http://www.w3.org/2000/svg"
 width="676.000000pt" height="676.000000pt" viewBox="0 0 676.000000 676.000000"
 preserveAspectRatio="xMidYMid meet">
<metadata>
Created by potrace 1.11, written by Peter Selinger 2001-2013
</metadata>
<g transform="translate(0.000000,676.000000) scale(0.100000,-0.100000)"
fill="#000000" stroke="none">
<path d="M3250 6596 c-92 -26 -176 -84 -231 -161 -26 -36 -40 -46 -79 -54 -79
-17 -239 -71 -335 -113 -345 -152 -662 -437 -860 -773 -339 -576 -339 -1314
-1 -1889 152 -259 383 -497 631 -652 l75 -46 0 -247 0 -248 -45 -32 c-211
-151 -235 -453 -51 -637 167 -166 425 -166 592 0 184 184 160 486 -51 637
l-45 32 0 164 c0 90 2 163 4 163 2 0 39 -9 82 -19 44 -11 114 -25 157 -32 l77
-12 0 -793 c0 -792 0 -793 -21 -799 -32 -11 -134 -116 -159 -165 -87 -171 -58
-363 74 -496 167 -166 425 -166 592 0 57 58 90 114 110 191 44 162 -22 347
-156 442 l-40 28 0 796 0 796 107 18 c59 9 128 23 153 31 25 8 51 14 58 14 9
0 12 -107 12 -503 l0 -504 -45 -32 c-211 -151 -235 -453 -51 -637 167 -166
425 -166 592 0 184 184 160 486 -51 637 l-45 32 0 591 0 591 54 33 c239 143
489 399 641 656 340 578 340 1314 -1 1894 -200 340 -522 625 -876 777 -106 45
-324 115 -359 115 -10 0 -29 12 -42 28 -48 59 -118 122 -159 143 -93 48 -213
61 -308 35z m-227 -656 c116 -164 348 -217 535 -121 44 22 125 96 155 141 16
23 18 24 64 12 78 -21 253 -95 329 -140 377 -220 643 -598 720 -1022 24 -130
24 -390 0 -520 -102 -564 -532 -1028 -1084 -1171 -830 -216 -1673 325 -1829
1171 -24 130 -24 390 0 520 96 522 463 951 967 1135 52 19 100 34 105 34 6 0
23 -17 38 -39z"/>
</g>
</svg>
